<?xml version="1.0" encoding="UTF-8"?>
<svg id="Capa_2" data-name="Capa 2" xmlns="http://www.w3.org/2000/svg" viewBox="0 0 178.53 178.53">
  <defs>
    <style>
      .cls-1 {
        fill: #fff;
      }

      .cls-2, .cls-3 {
        fill: #4c1d55;
      }

      .cls-3 {
        stroke: #fff;
        stroke-miterlimit: 10;
        stroke-width: 4px;
      }

      .cls-4 {
        fill: #e8ba4e;
      }
    </style>
  </defs>
  <g id="Capa_1-2" data-name="Capa 1">
    <rect class="cls-4" width="178.53" height="178.53"/>
    <polygon class="cls-1" points="119.12 128.16 90 172.6 48.94 111.07 119.12 97.58 119.12 128.16"/>
    <rect class="cls-1" x="41.48" y="86.16" width="94.06" height="30.59"/>
    <g>
      <path class="cls-3" d="m59.9,53.94L86.88,7.25c1.45-2.51,4.79-2.44,6.15.13l24.74,46.57c-8.32-1.15-19.83-2.81-28.93-2.81-10.19,0-17.58.85-28.93,2.81Z"/>
      <path class="cls-3" d="m90.31,58.27c-37.04,0-67.06,16.77-67.06,37.45,0,15.68,17.26,29.1,41.75,34.68-.92-1.66-1.72-3.12-2.35-4.26-.75-1.38.1-3.09,1.66-3.32l14.3-2.18c1.08-.16,2.13.45,2.48,1.48.9,2.63,3.12,7.31,7.74,8.08,4.96.83,8.26-5.38,9.54-8.35.39-.91,1.31-1.45,2.29-1.36l15.51,1.43c1.61.15,2.56,1.87,1.81,3.3-.72,1.39-1.67,3.2-2.77,5.28,24.7-5.52,42.15-19.01,42.15-34.77,0-20.68-30.03-37.45-67.06-37.45Zm-29.26,58.41s-11.56.3-16.43-3.25c0,0,10.78-3.67,15.9-11.27,0,0,7.5-13.33,16.28-12.32,0,0,9.8-.39,9.8,11.46,0,0-.49,16.7-25.55,15.38Zm56.82,0c-25.06,1.32-25.55-15.38-25.55-15.38,0-11.85,9.8-11.46,9.8-11.46,8.77-1.01,16.28,12.32,16.28,12.32,5.12,7.61,15.9,11.27,15.9,11.27-4.87,3.55-16.43,3.25-16.43,3.25Z"/>
      <path class="cls-3" d="m119.93,122.19l-17.76-1.64c-.29-.03-.57,0-.84.06l14.82,1.37c1.61.15,2.55,1.87,1.81,3.3-5.3,10.23-22.79,43.17-27.93,42.14-5.13-1.03-22.17-31.64-27.39-41.22-.75-1.38.1-3.08,1.66-3.32l13.65-2.08c-.34-.09-.69-.13-1.06-.08l-16.38,2.5c-1.78.27-2.76,2.22-1.9,3.81,5.98,10.97,25.5,46.05,31.38,47.23,5.89,1.18,25.93-36.56,32-48.29.85-1.64-.24-3.61-2.08-3.78Z"/>
    </g>
    <g>
      <path class="cls-2" d="m59.9,53.88L86.88,7.19c1.45-2.51,4.79-2.44,6.15.13l24.74,46.57c-8.32-1.15-19.83-2.81-28.93-2.81-10.19,0-17.58.85-28.93,2.81Z"/>
      <path class="cls-2" d="m90.31,58.21c-37.04,0-67.06,16.77-67.06,37.45,0,15.68,17.26,29.1,41.75,34.68-.92-1.66-1.72-3.12-2.35-4.26-.75-1.38.1-3.09,1.66-3.32l14.3-2.18c1.08-.16,2.13.45,2.48,1.48.9,2.63,3.12,7.31,7.74,8.08,4.96.83,8.26-5.38,9.54-8.35.39-.91,1.31-1.45,2.29-1.36l15.51,1.43c1.61.15,2.56,1.87,1.81,3.3-.72,1.39-1.67,3.2-2.77,5.28,24.7-5.52,42.15-19.01,42.15-34.77,0-20.68-30.03-37.45-67.06-37.45Zm-29.26,58.41s-11.56.3-16.43-3.25c0,0,10.78-3.67,15.9-11.27,0,0,7.5-13.33,16.28-12.32,0,0,9.8-.39,9.8,11.46,0,0-.49,16.7-25.55,15.38Zm56.82,0c-25.06,1.32-25.55-15.38-25.55-15.38,0-11.85,9.8-11.46,9.8-11.46,8.77-1.01,16.28,12.32,16.28,12.32,5.12,7.61,15.9,11.27,15.9,11.27-4.87,3.55-16.43,3.25-16.43,3.25Z"/>
      <path class="cls-2" d="m119.93,122.13l-17.76-1.64c-.29-.03-.57,0-.84.06l14.82,1.37c1.61.15,2.55,1.87,1.81,3.3-5.3,10.23-22.79,43.17-27.93,42.14-5.13-1.03-22.17-31.64-27.39-41.22-.75-1.38.1-3.08,1.66-3.32l13.65-2.08c-.34-.09-.69-.13-1.06-.08l-16.38,2.5c-1.78.27-2.76,2.22-1.9,3.81,5.98,10.97,25.5,46.05,31.38,47.23,5.89,1.18,25.93-36.56,32-48.29.85-1.64-.24-3.61-2.08-3.78Z"/>
    </g>
  </g>
</svg>