<?xml version="1.0" encoding="UTF-8"?>
<svg id="Capa_2" data-name="Capa 2" xmlns="http://www.w3.org/2000/svg" viewBox="0 0 512.6 299.04">
  <defs>
    <style>
      .cls-1 {
        fill: #d6892e;
      }

      .cls-2 {
        fill: #795c44;
      }

      .cls-3 {
        fill: #8d2f84;
      }

      .cls-4 {
        fill: #7ba838;
      }

      .cls-5 {
        fill: #4c1d55;
      }

      .cls-6 {
        fill: #7d3185;
      }

      .cls-7 {
        fill: #e8ba4e;
      }
    </style>
  </defs>
  <g id="Capa_1-2" data-name="Capa 1">
    <g>
      <path class="cls-5" d="m152.9,188.74c.37,0,.68.11.92.32.24.21.38.47.44.76.05.29-.01.57-.2.84-.19.27-.49.45-.92.56-2.83.75-5.37,1.89-7.64,3.44-2.27,1.55-4.09,3.92-5.48,7.12-.75,1.71-1.75,4.16-3,7.36-1.25,3.2-2.69,6.88-4.32,11.04s-3.36,8.67-5.2,13.52c-1.84,4.85-3.72,9.8-5.64,14.84s-3.81,10.04-5.68,15c-1.87,4.96-3.61,9.63-5.24,14-1.63,4.37-3.11,8.33-4.44,11.88-1.33,3.55-2.4,6.39-3.2,8.52-.27.64-.68,1-1.24,1.08-.56.08-.97-.25-1.24-1-.43-1.28-1.08-3.15-1.96-5.6-.88-2.45-1.89-5.28-3.04-8.48-1.15-3.2-2.37-6.63-3.68-10.28-1.31-3.65-2.6-7.29-3.88-10.92-1.28-3.63-2.53-7.13-3.76-10.52-1.23-3.39-2.31-6.39-3.24-9-.93-2.61-1.71-4.75-2.32-6.4-.61-1.65-.95-2.56-1-2.72-.21-.43-.48-.61-.8-.56-.32.05-.59.32-.8.8-1.55,4-3.11,8.09-4.68,12.28-1.57,4.19-3.13,8.33-4.68,12.44-1.55,4.11-3.05,8.12-4.52,12.04-1.47,3.92-2.83,7.56-4.08,10.92-1.25,3.36-2.4,6.41-3.44,9.16-1.04,2.75-1.88,5-2.52,6.76-.27.64-.68,1-1.24,1.08s-.97-.25-1.24-1c-.69-1.97-1.61-4.59-2.76-7.84-1.15-3.25-2.45-6.95-3.92-11.08-1.47-4.13-3.04-8.55-4.72-13.24-1.68-4.69-3.39-9.45-5.12-14.28-1.73-4.83-3.45-9.57-5.16-14.24-1.71-4.67-3.32-9.03-4.84-13.08-1.52-4.05-2.91-7.67-4.16-10.84-1.25-3.17-2.31-5.67-3.16-7.48-2.03-4.43-4.28-7.81-6.76-10.16-2.48-2.35-5.24-3.81-8.28-4.4-.43-.05-.72-.23-.88-.52-.16-.29-.21-.6-.16-.92.05-.32.21-.6.48-.84.27-.24.64-.36,1.12-.36h101.12c.37,0,.68.11.92.32.24.21.4.47.48.76.08.29.03.57-.16.84-.19.27-.55.48-1.08.64-.38.11-.92.27-1.64.48-.72.21-1.51.52-2.36.92-.85.4-1.71.91-2.56,1.52-.85.61-1.56,1.4-2.12,2.36-.56.96-.93,2.09-1.12,3.4-.19,1.31-.04,2.84.44,4.6.53,2.08,1.29,4.57,2.28,7.48.99,2.91,2.07,6.01,3.24,9.32,1.17,3.31,2.39,6.68,3.64,10.12,1.25,3.44,2.47,6.71,3.64,9.8,1.17,3.09,2.24,5.89,3.2,8.4.96,2.51,1.71,4.48,2.24,5.92.21.48.49.71.84.68.35-.03.6-.25.76-.68.53-1.49,1.29-3.6,2.28-6.32.99-2.72,2.08-5.76,3.28-9.12s2.47-6.91,3.8-10.64c1.33-3.73,2.61-7.36,3.84-10.88,1.23-3.52,2.33-6.8,3.32-9.84.99-3.04,1.77-5.55,2.36-7.52.53-1.92.51-3.49-.08-4.72-.59-1.23-1.43-2.2-2.52-2.92-1.09-.72-2.28-1.24-3.56-1.56s-2.32-.59-3.12-.8c-.48-.11-.8-.31-.96-.6-.16-.29-.21-.59-.16-.88.05-.29.2-.55.44-.76.24-.21.57-.32,1-.32h29.6Zm-90.4,66.88c.32-.91.79-2.19,1.4-3.84.61-1.65,1.29-3.52,2.04-5.6.75-2.08,1.52-4.25,2.32-6.52.8-2.27,1.52-4.44,2.16-6.52s1.16-3.96,1.56-5.64c.4-1.68.6-3,.6-3.96,0-1.44-.21-3-.64-4.68-.43-1.68-.95-3.33-1.56-4.96-.61-1.63-1.24-3.13-1.88-4.52-.64-1.39-1.15-2.53-1.52-3.44-.96-2.13-1.99-3.99-3.08-5.56-1.09-1.57-2.32-2.88-3.68-3.92-1.36-1.04-2.88-1.8-4.56-2.28-1.68-.48-3.59-.72-5.72-.72-1.12,0-2.24.19-3.36.56-1.12.37-2.05.99-2.8,1.84-.75.85-1.27,2-1.56,3.44-.29,1.44-.15,3.2.44,5.28.53,2.08,1.28,4.57,2.24,7.48.96,2.91,2.03,6.01,3.2,9.32,1.17,3.31,2.4,6.68,3.68,10.12,1.28,3.44,2.51,6.71,3.68,9.8,1.17,3.09,2.24,5.89,3.2,8.4.96,2.51,1.71,4.48,2.24,5.92.21.48.49.71.84.68.35-.03.6-.25.76-.68Z"/>
      <path class="cls-5" d="m167.46,254.26c-.85,0-1.28.45-1.28,1.36,0,5.44.48,10.11,1.44,14,.96,3.89,2.36,7.08,4.2,9.56s4.13,4.31,6.88,5.48c2.75,1.17,5.93,1.76,9.56,1.76,2.77,0,5.24-.29,7.4-.88,2.16-.59,4.04-1.27,5.64-2.04,1.6-.77,2.91-1.51,3.92-2.2,1.01-.69,1.76-1.15,2.24-1.36.75-.32,1.33-.25,1.76.2.43.45.43,1.13,0,2.04-.16.32-.52.95-1.08,1.88-.56.93-1.37,2.01-2.44,3.24-1.07,1.23-2.4,2.51-4,3.84-1.6,1.33-3.51,2.56-5.72,3.68-2.21,1.12-4.75,2.04-7.6,2.76-2.85.72-6.04,1.08-9.56,1.08-5.33,0-10.16-.84-14.48-2.52-4.32-1.68-8.01-4.12-11.08-7.32-3.07-3.2-5.44-7.09-7.12-11.68-1.68-4.59-2.52-9.76-2.52-15.52,0-6.29,1.04-11.87,3.12-16.72,2.08-4.85,4.8-8.92,8.16-12.2,3.36-3.28,7.17-5.77,11.44-7.48,4.27-1.71,8.61-2.56,13.04-2.56,4.16,0,7.83.57,11,1.72,3.17,1.15,5.92,2.64,8.24,4.48,2.32,1.84,4.24,3.89,5.76,6.16,1.52,2.27,2.75,4.52,3.68,6.76.93,2.24,1.59,4.35,1.96,6.32.37,1.97.56,3.55.56,4.72,0,.53-.17.91-.52,1.12-.35.21-.81.32-1.4.32h-41.2Zm-.88-5.28c-.11.69.21,1.04.96,1.04.16,0,.69-.01,1.6-.04.91-.03,2.01-.07,3.32-.12,1.31-.05,2.71-.11,4.2-.16,1.49-.05,2.92-.11,4.28-.16,1.36-.05,2.53-.09,3.52-.12.99-.03,1.61-.07,1.88-.12.85-.05,1.75-.43,2.68-1.12.93-.69,1.4-1.89,1.4-3.6,0-1.55-.21-3.33-.64-5.36-.43-2.03-1.11-3.95-2.04-5.76-.93-1.81-2.12-3.35-3.56-4.6-1.44-1.25-3.2-1.88-5.28-1.88-1.65,0-3.09.44-4.32,1.32-1.23.88-2.28,2.03-3.16,3.44-.88,1.41-1.61,2.97-2.2,4.68-.59,1.71-1.07,3.37-1.44,5-.37,1.63-.65,3.12-.84,4.48-.19,1.36-.31,2.39-.36,3.08Z"/>
      <path class="cls-6" d="m324.06,224.98c.24.21.39.47.44.76.05.29-.01.57-.2.84-.19.27-.49.45-.92.56-1.44.37-2.69.84-3.76,1.4-1.07.56-2.03,1.27-2.88,2.12s-1.65,1.85-2.4,3c-.75,1.15-1.52,2.49-2.32,4.04-.32.59-.95,1.91-1.88,3.96-.93,2.05-2.07,4.56-3.4,7.52s-2.8,6.21-4.4,9.76c-1.6,3.55-3.2,7.13-4.8,10.76-3.79,8.48-8.03,17.92-12.72,28.32-.27.48-.65.72-1.16.72s-.89-.21-1.16-.64c-2.93-6.83-5.57-13.01-7.92-18.56-1.01-2.35-2.01-4.67-3-6.96-.99-2.29-1.88-4.39-2.68-6.28-.8-1.89-1.48-3.47-2.04-4.72-.56-1.25-.92-2.01-1.08-2.28-.37-.64-.75-.64-1.12,0-.16.27-.52,1.01-1.08,2.24-.56,1.23-1.27,2.77-2.12,4.64-.85,1.87-1.79,3.95-2.8,6.24-1.01,2.29-2.05,4.61-3.12,6.96-2.51,5.55-5.28,11.76-8.32,18.64-.27.48-.65.72-1.16.72s-.89-.21-1.16-.64c-4.43-10.4-8.48-19.84-12.16-28.32-1.55-3.63-3.09-7.21-4.64-10.76-1.55-3.55-2.96-6.8-4.24-9.76-1.28-2.96-2.37-5.47-3.28-7.52-.91-2.05-1.52-3.4-1.84-4.04-.8-1.55-1.57-2.89-2.32-4.04-.75-1.15-1.55-2.15-2.4-3-.85-.85-1.81-1.56-2.88-2.12-1.07-.56-2.32-1.03-3.76-1.4-.43-.11-.73-.29-.92-.56-.19-.27-.27-.55-.24-.84.03-.29.16-.55.4-.76.24-.21.57-.32,1-.32h42c.37,0,.69.11.96.32.27.21.43.47.48.76.05.29,0,.59-.16.88-.16.29-.48.49-.96.6-.8.21-1.77.49-2.92.84-1.15.35-2.19.88-3.12,1.6-.93.72-1.61,1.68-2.04,2.88-.43,1.2-.35,2.76.24,4.68.27.85.73,2.16,1.4,3.92.67,1.76,1.44,3.72,2.32,5.88.88,2.16,1.8,4.4,2.76,6.72.96,2.32,1.85,4.44,2.68,6.36.83,1.92,1.52,3.53,2.08,4.84.56,1.31.89,2.04,1,2.2.37.69.75.69,1.12,0,.05-.11.33-.73.84-1.88.51-1.15,1.16-2.63,1.96-4.44.8-1.81,1.71-3.87,2.72-6.16,1.01-2.29,2.05-4.65,3.12-7.08,1.07-2.43,2.12-4.8,3.16-7.12,1.04-2.32,1.99-4.43,2.84-6.32.85-1.89,1.56-3.47,2.12-4.72.56-1.25.89-1.99,1-2.2.27-.59.69-.92,1.28-1,.59-.08,1.07.25,1.44,1,.16.32.51,1.13,1.04,2.44.53,1.31,1.19,2.92,1.96,4.84.77,1.92,1.61,4.04,2.52,6.36.91,2.32,1.84,4.68,2.8,7.08.96,2.4,1.89,4.73,2.8,7,.91,2.27,1.71,4.29,2.4,6.08.69,1.79,1.27,3.24,1.72,4.36.45,1.12.71,1.71.76,1.76.37.69.75.69,1.12,0,.16-.37.52-1.25,1.08-2.64.56-1.39,1.23-3.07,2-5.04.77-1.97,1.6-4.09,2.48-6.36.88-2.27,1.71-4.45,2.48-6.56.77-2.11,1.47-4,2.08-5.68.61-1.68,1.03-2.89,1.24-3.64.59-1.92.67-3.48.24-4.68-.43-1.2-1.08-2.16-1.96-2.88-.88-.72-1.87-1.25-2.96-1.6-1.09-.35-2.04-.63-2.84-.84-.48-.11-.8-.31-.96-.6-.16-.29-.21-.59-.16-.88.05-.29.2-.55.44-.76.24-.21.57-.32,1-.32h25.92c.37,0,.68.11.92.32Z"/>
      <path class="cls-6" d="m355.62,284.1c0,2.13.43,3.85,1.28,5.16.85,1.31,1.83,2.32,2.92,3.04,1.09.72,2.16,1.23,3.2,1.52,1.04.29,1.77.47,2.2.52.43.11.73.28.92.52.19.24.25.49.2.76-.05.27-.2.51-.44.72-.24.21-.57.32-1,.32h-40.16c-.43,0-.76-.11-1-.32-.24-.21-.39-.45-.44-.72-.05-.27.01-.52.2-.76.19-.24.49-.41.92-.52.43-.05,1.16-.23,2.2-.52,1.04-.29,2.11-.8,3.2-1.52,1.09-.72,2.07-1.73,2.92-3.04.85-1.31,1.28-3.03,1.28-5.16v-44.48c0-.69-.32-1.12-.96-1.28-.11,0-.49-.08-1.16-.24s-1.43-.35-2.28-.56c-.85-.21-1.64-.4-2.36-.56-.72-.16-1.16-.27-1.32-.32-.69-.16-1.05-.52-1.08-1.08-.03-.56.36-.95,1.16-1.16,2.08-.48,4.33-1.13,6.76-1.96,2.43-.83,4.87-1.76,7.32-2.8s4.83-2.16,7.12-3.36c2.29-1.2,4.35-2.41,6.16-3.64.48-.32.97-.45,1.48-.4.51.05.76.45.76,1.2v60.64Z"/>
      <path class="cls-6" d="m432.34,278.18c.37-.75.89-1.08,1.56-1s1,.52,1,1.32v16.64c0,1.01-.56,1.52-1.68,1.52h-61.28c-1.07,0-1.71-.32-1.92-.96-.21-.64-.11-1.33.32-2.08.11-.16.65-1.08,1.64-2.76.99-1.68,2.29-3.85,3.92-6.52,1.63-2.67,3.47-5.72,5.52-9.16,2.05-3.44,4.17-6.99,6.36-10.64,2.19-3.65,4.39-7.31,6.6-10.96,2.21-3.65,4.25-7.03,6.12-10.12,1.87-3.09,3.49-5.81,4.88-8.16,1.39-2.35,2.4-4.03,3.04-5.04.21-.32.21-.57,0-.76-.21-.19-.45-.28-.72-.28h-9.04c-3.57,0-6.64.56-9.2,1.68-2.56,1.12-4.69,2.43-6.4,3.92-1.71,1.49-3.04,2.97-4,4.44-.96,1.47-1.6,2.55-1.92,3.24-.43.8-.96,1.15-1.6,1.04-.64-.11-.96-.56-.96-1.36v-16c0-1.01.56-1.52,1.68-1.52h56.32c1.23,0,1.91.35,2.04,1.04.13.69.01,1.33-.36,1.92-.11.16-.65,1.07-1.64,2.72-.99,1.65-2.28,3.8-3.88,6.44-1.6,2.64-3.41,5.67-5.44,9.08-2.03,3.41-4.15,6.95-6.36,10.6-2.21,3.65-4.41,7.29-6.6,10.92-2.19,3.63-4.21,7-6.08,10.12-1.87,3.12-3.51,5.85-4.92,8.2-1.41,2.35-2.44,4.05-3.08,5.12-.43.75-.21,1.12.64,1.12h13.92c3.57,0,6.64-.59,9.2-1.76,2.56-1.17,4.69-2.53,6.4-4.08,1.71-1.55,3.04-3.08,4-4.6s1.6-2.63,1.92-3.32Z"/>
      <path class="cls-6" d="m510.5,289.3c.75-.16,1.33-.01,1.76.44.43.45.45,1.05.08,1.8-.32.59-.84,1.28-1.56,2.08-.72.8-1.68,1.55-2.88,2.24-1.2.69-2.67,1.28-4.4,1.76-1.73.48-3.77.72-6.12.72-3.25,0-5.99-.65-8.2-1.96-2.21-1.31-3.75-2.81-4.6-4.52-.21-.43-.52-.61-.92-.56-.4.05-.73.21-1,.48-.16.16-.65.6-1.48,1.32-.83.72-2,1.49-3.52,2.32-1.52.83-3.35,1.57-5.48,2.24-2.13.67-4.59,1-7.36,1-4.75,0-8.73-.67-11.96-2-3.23-1.33-5.84-3.05-7.84-5.16-2-2.11-3.44-4.48-4.32-7.12-.88-2.64-1.32-5.27-1.32-7.88,0-4.21,1.19-7.89,3.56-11.04,2.37-3.15,5.45-5.49,9.24-7.04,2.03-.8,4.15-1.37,6.36-1.72,2.21-.35,4.41-.71,6.6-1.08,2.19-.37,4.33-.84,6.44-1.4,2.11-.56,4.09-1.48,5.96-2.76,1.97-1.33,3.35-3.04,4.12-5.12.77-2.08,1.16-4.29,1.16-6.64,0-1.71-.23-3.35-.68-4.92-.45-1.57-1.09-2.95-1.92-4.12-.83-1.17-1.79-2.11-2.88-2.8-1.09-.69-2.28-1.04-3.56-1.04-2.29,0-3.97.59-5.04,1.76-1.07,1.17-1.91,2.59-2.52,4.24-.61,1.65-1.19,3.37-1.72,5.16-.53,1.79-1.39,3.32-2.56,4.6-.96,1.01-2.2,1.77-3.72,2.28-1.52.51-2.97.76-4.36.76s-2.72-.24-3.84-.72c-1.12-.48-2.08-1.13-2.88-1.96-.8-.83-1.4-1.79-1.8-2.88-.4-1.09-.6-2.25-.6-3.48,0-1.65.4-3.31,1.2-4.96.8-1.65,2.23-3.15,4.28-4.48,2.05-1.33,4.81-2.41,8.28-3.24,3.47-.83,7.87-1.24,13.2-1.24,5.92,0,10.97.6,15.16,1.8,4.19,1.2,7.6,2.95,10.24,5.24,2.64,2.29,4.56,5.13,5.76,8.52,1.2,3.39,1.8,7.24,1.8,11.56,0,5.17-.16,10.03-.48,14.56-.32,4.53-.55,8.55-.68,12.04-.13,3.49-.07,6.37.2,8.64.27,2.27,1.01,3.67,2.24,4.2.53.27,1.2.39,2,.36.8-.03,1.65-.12,2.56-.28Zm-27.76-35.76c0-.32-.13-.53-.4-.64-.27-.11-.51-.03-.72.24-.43.48-.81.93-1.16,1.36-.35.43-.81.93-1.4,1.52-1.01,1.07-2.05,2.07-3.12,3-1.07.93-2.13,1.88-3.2,2.84-1.07.85-2.12,1.71-3.16,2.56-1.04.85-2.01,1.79-2.92,2.8-1.39,1.6-2.41,3.35-3.08,5.24-.67,1.89-1,3.91-1,6.04,0,1.44.21,2.89.64,4.36.43,1.47,1.08,2.77,1.96,3.92.88,1.15,2,2.08,3.36,2.8,1.36.72,3,1.08,4.92,1.08s3.48-.4,4.68-1.2c1.2-.8,2.13-1.76,2.8-2.88s1.13-2.25,1.4-3.4c.27-1.15.4-2.04.4-2.68v-26.96Z"/>
    </g>
    <path class="cls-7" d="m362.36,199.06c-10.29,4.45-13.9,8.05-18.35,18.35-4.45-10.29-8.05-13.9-18.35-18.35,10.29-4.45,13.9-8.05,18.35-18.35,4.45,10.29,8.05,13.9,18.35,18.35Z"/>
    <path class="cls-3" d="m132.33,124.72s-25.49,6.18-16.8,21.82c0,0,9.08,14.29,28.97-5.41,0,0,7.73-7.63,10.82-15.74,3.09-8.11,3.09-10.43,3.19-14.2,0,0-.56-7.92-8.5-2.8,0,0-7.57,11.85-17.67,16.32Z"/>
    <path class="cls-4" d="m150.01,102.64s1.12,2.5,2.25,2.53c0,0,2.44-.76,3.91,0l3.44-5.19c.43-.65,1.29-.88,1.99-.52l2.05,1.04c.64.32.77,1.17.26,1.67l-5.46,5.43s2.03.62,1.52,6.12c0,0,.18,1.48.87,1.45,0,0-5.07.36-6.19-3.98,0,0-1.56,1.05-5.29,1.05,0,0-.04-4.31,1.45-4.74,0,0-1.56-.94-.8-4.85Z"/>
    <path class="cls-4" d="m386.38,115.18s-7.4-2.03-11.95,12.01c-.3.93-.77,1.8-1.4,2.55-3.56,4.28-15.05,20.22,2.29,30.09,5.54,3.15,12.39,3.04,17.81-.31,7.52-4.65,15.27-13.7,3.03-28.92-.84-1.05-1.43-2.28-1.71-3.59-.79-3.72-3.04-11.44-8.08-11.85Z"/>
    <path class="cls-2" d="m384.49,118.74l2.39-11.63c.12-.58.81-.82,1.26-.44l.72.6c.24.2.34.52.25.81l-3.11,11.03c-.09.34-.4.57-.75.57h0c-.49,0-.86-.45-.77-.94Z"/>
    <ellipse class="cls-1" cx="331.34" cy="30.23" rx="22.67" ry="21.09"/>
    <path class="cls-4" d="m332.92,14.88s-.91-16-17.48-14.82c0,0,2.41,10.65,17.48,14.82Z"/>
    <path class="cls-2" d="m332.07,14.49l2.31-11.26c.11-.56.78-.8,1.22-.43l.7.58c.23.19.33.5.25.79l-3.01,10.68c-.09.33-.39.55-.73.55h0c-.48,0-.84-.44-.74-.91Z"/>
    <path class="cls-7" d="m201.26,17.74l.43-10.56c.06-1.58,1.67-2.62,3.14-2.04l1.35.54c1.03.41,1.62,1.49,1.4,2.58l-1.65,8.25c-.14.71.07,1.45.55,1.99,1.43,1.61,4.13,5.7,2.34,12.31-.02.06-.03.12-.05.18-.39,1.14-5.59,13.36-19.87,15.28-9.34,1.25-10.36.76-15.25.03s-15.71-3.64-19.29-6.9-6.87-8.14-6.76-15.19c.03-1.68,1.82-2.78,3.31-2.02.73.38,1.64.91,2.75,1.66,9.82,6.58,32.77,16.78,47.23-4.91.23-.35.37-.77.38-1.19Z"/>
    <g>
      <path class="cls-5" d="m229.91,84.98l26.98-46.7c1.45-2.51,4.79-2.44,6.15.13l24.74,46.57c-8.32-1.15-19.83-2.81-28.93-2.81-10.19,0-17.58.85-28.93,2.81Z"/>
      <path class="cls-5" d="m260.32,89.31c-37.04,0-67.06,16.77-67.06,37.45,0,15.68,17.26,29.1,41.75,34.68-.92-1.66-1.72-3.12-2.35-4.26-.75-1.38.1-3.09,1.66-3.32l14.3-2.18c1.08-.16,2.13.45,2.48,1.48.9,2.63,3.12,7.31,7.74,8.08,4.96.83,8.26-5.38,9.54-8.35.39-.91,1.31-1.45,2.29-1.36l15.51,1.43c1.61.15,2.56,1.87,1.81,3.3-.72,1.39-1.67,3.2-2.77,5.28,24.7-5.52,42.15-19.01,42.15-34.77,0-20.68-30.03-37.45-67.06-37.45Zm-29.26,58.41s-11.56.3-16.43-3.25c0,0,10.78-3.67,15.9-11.27,0,0,7.5-13.33,16.28-12.32,0,0,9.8-.39,9.8,11.46,0,0-.49,16.7-25.55,15.38Zm56.82,0c-25.06,1.32-25.55-15.38-25.55-15.38,0-11.85,9.8-11.46,9.8-11.46,8.77-1.01,16.28,12.32,16.28,12.32,5.12,7.61,15.9,11.27,15.9,11.27-4.87,3.55-16.43,3.25-16.43,3.25Z"/>
      <path class="cls-5" d="m289.95,153.23l-17.76-1.64c-.29-.03-.57,0-.84.06l14.82,1.37c1.61.15,2.55,1.87,1.81,3.3-5.3,10.23-22.79,43.17-27.93,42.14-5.13-1.03-22.17-31.64-27.39-41.22-.75-1.38.1-3.08,1.66-3.32l13.65-2.08c-.34-.09-.69-.13-1.06-.08l-16.38,2.5c-1.78.27-2.76,2.22-1.9,3.81,5.98,10.97,25.5,46.05,31.38,47.23,5.89,1.18,25.93-36.56,32-48.29.85-1.64-.24-3.61-2.08-3.78Z"/>
    </g>
    <path class="cls-7" d="m154.34,39.38s11.32,10.04,32.47,7.64c21.15-2.4,22.59-21.02,22.59-21.02l-55.06,13.39Z"/>
  </g>
</svg>